<svg width="573" height="221" viewBox="0 0 573 221" fill="none" xmlns="http://www.w3.org/2000/svg">
<path d="M558.165 48.0327L482.486 220.946H462.336L486.938 164.714L435.157 48.0327H455.307L497.247 141.519L537.781 48.0327H558.165Z" fill="#2C3F24"/>
<path d="M431.949 63.0274L419.531 75.9139C410.315 67.3229 401.88 63.0274 394.226 63.0274C389.384 63.0274 385.323 64.5894 382.043 67.7134C378.762 70.6812 377.122 74.43 377.122 78.9598C377.122 83.3334 378.919 87.2384 382.511 90.6748C386.26 93.955 392.82 98.0943 402.192 103.093C411.565 107.935 418.75 113.324 423.748 119.259C428.903 125.195 431.48 132.458 431.48 141.049C431.48 151.983 427.653 161.199 419.999 168.697C412.502 176.194 403.208 179.943 392.118 179.943C376.654 179.943 363.767 173.383 353.458 160.262L365.642 146.673C374.076 156.513 382.667 161.434 391.415 161.434C397.35 161.434 402.427 159.481 406.644 155.576C410.862 151.671 412.97 147.141 412.97 141.987C412.97 136.676 411.018 132.302 407.113 128.866C403.364 125.273 396.804 121.134 387.432 116.448C378.216 111.762 371.187 106.607 366.345 100.984C361.659 95.2046 359.316 87.707 359.316 78.4912C359.316 69.1192 362.674 61.153 369.39 54.5926C376.263 48.0322 385.245 44.752 396.335 44.752C407.581 44.752 419.453 50.8438 431.949 63.0274Z" fill="#2C3F24"/>
<path d="M355.109 175.725H327.228L267.247 121.836V175.725H247.8V0H267.247V96.2975L322.307 48.2659L351.126 48.0316L280.836 108.95L355.109 175.725Z" fill="#2C3F24"/>
<path d="M222.216 0C226.433 0 229.948 1.48391 232.76 4.45172C235.727 7.26332 237.211 10.7778 237.211 14.9952C237.211 19.0564 235.727 22.571 232.76 25.5388C229.948 28.3504 226.433 29.7562 222.216 29.7562C218.155 29.7562 214.64 28.2723 211.672 25.3044C208.861 22.3366 207.455 18.9002 207.455 14.9952C207.455 10.934 208.861 7.41953 211.672 4.45172C214.64 1.48391 218.155 0 222.216 0ZM232.057 175.725H212.61V48.0316H232.057V175.725Z" fill="#2C3F24"/>
<path d="M205.396 49.9066L195.321 66.3076C192.666 64.9018 190.089 64.1989 187.589 64.1989C182.747 64.1989 178.374 66.62 174.469 71.4622C170.564 76.1482 167.596 82.3962 165.565 90.2062C163.691 97.86 162.753 111.762 162.753 131.912V175.726H143.072V48.0322H162.753V61.8559C166.658 56.0765 170.564 51.781 174.469 48.9694C178.53 46.1577 183.06 44.752 188.058 44.752C193.213 44.752 198.992 46.4702 205.396 49.9066Z" fill="#2C3F24"/>
<path d="M18.9783 66.7756C32.2554 52.0928 48.1878 44.7514 66.7756 44.7514C85.3634 44.7514 100.983 51.3899 113.636 64.6669C126.444 77.7877 132.848 93.6421 132.848 112.23C132.848 130.818 126.366 146.75 113.401 160.027C100.437 173.304 84.7386 179.943 66.307 179.943C48.0316 179.943 32.2554 171.977 18.9783 156.044V175.725H0V0H18.9783V66.7756ZM65.6041 161.199C78.8811 161.199 90.1276 156.278 99.3434 146.438C108.715 136.597 113.401 125.116 113.401 111.996C113.401 98.7186 108.872 87.1598 99.812 77.3191C90.7523 67.4785 79.4278 62.5582 65.8384 62.5582C52.249 62.5582 40.8464 67.1661 31.6306 76.3819C22.5709 85.5977 18.0411 97.2347 18.0411 111.293C18.0411 125.195 22.649 136.988 31.8649 146.672C41.0807 156.356 52.3271 161.199 65.6041 161.199Z" fill="#2C3F24"/>
<rect x="554.299" y="168.612" width="18.7016" height="18.7016" fill="#E10C41"/>
</svg>
