<svg width="476" height="605" viewBox="0 0 476 605" fill="none" xmlns="http://www.w3.org/2000/svg">
<g clip-path="url(#clip0_777_866)">
<path d="M228.014 56.7761C249.51 56.4015 266.158 58.4701 285.018 69.9039C310.967 85.635 320.44 115.829 320.903 144.663C320.988 150.001 319.165 157.882 319.791 162.891C320.077 165.177 329.699 167.774 333.015 169.678C341.213 174.279 348.804 183.008 351.12 192.07C355.897 210.777 349.526 225.481 338.251 240.115C335.552 243.618 337.988 251.449 339.263 255.649C343.754 258.919 348.614 261.488 353.253 264.257C365.321 271.464 374.491 280.929 382 292.716C383.241 294.667 387.62 305.373 388.761 305.722C392.422 306.846 399.888 306.441 404.016 307.136C412.264 308.424 425.403 311.911 432.334 316.082C438.898 320.035 440.806 327.177 443.883 333.452C444.796 335.307 447.056 337.83 448.277 339.712C450.237 342.737 451.211 346.972 451.986 350.5C453.579 357.75 450.655 364.692 449.272 371.71C446.182 387.386 441.94 401.944 432.97 415.414C429.299 420.931 420.401 425.101 418.527 429.786C416.239 435.52 414.511 443.145 412.495 449.176C410.608 454.827 406.902 460.372 405.219 465.795C401.81 476.762 399.788 490.015 392.926 499.678C384.392 511.688 369.016 524.34 354.95 529.277C352.776 530.039 346.001 531.175 343.405 531.672C339.237 536.053 331.528 540.99 333.804 547.531C342.283 571.904 346.723 599.134 344.302 624.925C343.815 630.11 339.826 635.261 335.525 638.092C333.381 639.497 330.996 640.498 328.491 641.043C320.603 642.759 294.349 641.937 287.194 639.939C266.116 634.049 255.562 635.251 234.266 639.086C222.975 641.119 199.081 641.099 187.759 638.858C176.209 636.807 166.788 634.892 154.935 636.031C148.616 636.642 143.876 638.254 137.756 639.41C125.059 641.81 111.31 642.403 98.4242 641.678C92.9569 641.368 87.0963 638.406 83.746 634.066C79.3579 628.384 79.5218 622.626 79.5197 615.86C79.5138 594.916 85.4861 576.961 93.7679 558.033C96.4352 551.936 106.959 532.418 107.529 527.423C106.034 523.104 95.7725 521.789 91.3077 520.177C88.263 519.068 85.333 517.67 82.5582 515.996C73.1042 510.4 66.3068 501.235 63.7014 490.574C63.0094 487.83 62.4165 482.431 61.7964 480.449C58.2307 470.134 52.7583 467.276 53.124 455.131C53.0376 443.687 58.3666 434.553 61.805 424.497C63.233 420.32 49.4619 391.353 47.0504 385.795C46.0497 383.485 40.2322 378.021 38.575 374.244C36.3938 371.413 35.5099 363.259 33.8873 360.691C27.0007 349.785 22.5245 339.994 30.1698 327.817C32.2818 324.453 36.3803 320.233 40.9938 319.134C54.0317 316.026 69.5109 315.567 82.9274 316.393C92.5871 317.17 95.4956 321.691 105.859 319.242C107.547 314.404 109.921 307.565 112.1 302.976C120.661 284.945 135.204 273.928 151.668 263.533C157.231 260.02 165.17 255.191 169.128 250.091C167.031 245.209 163.319 240.751 160.715 235.959C158.552 231.978 155.688 221.932 152.67 219.481C147.646 215.401 142.338 213.071 136.952 208.481C124.771 198.099 118.037 183.619 117.067 167.74C116.153 152.793 121.81 133.617 130.058 121.125C133.008 116.657 137.083 112.055 139.852 107.694C144.23 100.797 146.644 95.5095 152.288 89.1448C167.671 71.795 189.967 62.8688 212.246 58.3137C216.57 57.4296 223.517 57.0954 228.014 56.7761Z" fill="#FEFEFE"/>
<path d="M372.594 326.02C377.143 325.3 405.845 325.257 408.579 327.101C410.487 328.387 410.65 330.741 410.957 332.809C422.603 332.631 423.319 332.825 422.793 344.886C426.364 345.543 430.111 348.439 431.384 351.926C433.319 357.218 430.71 361.599 428.552 366.294C430.053 371.817 422.531 391.298 420.184 397.708C419.61 399.276 412.62 403.825 410.736 404.747C409.512 405.348 408.548 408.334 407.753 409.749C404.03 412.01 401.465 411.827 397.123 412.476C403.183 417.354 399.197 424.825 394.513 429.026C398.178 439.265 392.605 442.848 387.932 451.089C382.138 461.304 383.784 477.515 377.312 487.088C371.47 495.725 355.963 507.721 345.714 510.735C338.682 512.223 328.891 506.658 323.19 502.84C325.158 506.382 327.598 511.101 326.985 515.244C326.687 517.191 325.838 519.017 324.54 520.501C322.498 522.873 309.833 531.037 306.083 533.833C307.983 538.556 310.7 543.624 312.795 548.691C317.724 560.757 321.25 573.347 323.304 586.213C324.088 590.884 326.854 619.077 324.251 622.281C323.743 622.906 322.803 623.316 322.008 623.351C320.196 623.427 319.005 622.333 317.814 621.155C317.08 594.774 315.65 574.589 305.18 549.865C303.068 544.877 301.51 539.995 298.797 535.169C287.151 536.885 260.244 527.885 250.038 522.576C235.166 526.791 215.201 526.584 199.572 526.308C195.739 526.242 186.573 525.842 184.186 522.818C182.075 520.139 183.319 516.749 183.457 513.659L183.075 513.245C181.524 513.876 179.692 515.306 178.227 516.193C177.188 516.818 179.136 519.428 177.795 520.494C176.574 521.468 174.442 521.765 172.912 521.882C166.767 522.369 160.487 522.566 154.323 522.459C151.837 527.768 150.081 537.279 149.969 543.113C153.599 543.437 169.615 542.184 173.585 541.556C175.201 542.843 175.857 542.95 175.894 545.087C175.493 545.874 175.158 546.244 174.346 546.627C170.728 548.346 149.882 549.686 145.823 548.022C144.51 547.483 143.614 546.782 143.119 545.419C141.793 541.77 145.621 525.296 147.644 521.675C148.372 520.373 149.546 520.284 150.879 519.928C152.395 519.524 153.005 519.293 153.795 517.929C153.37 516.956 148.361 514.729 146.89 515.592C144.123 517.215 143.996 520.194 142.666 522.804C128.437 550.701 110.752 578.445 107.281 610.25C106.872 613.992 107.424 618.121 105.95 621.615C104.696 625.06 99.2365 622.947 99.2075 620.092C98.8649 586.061 116.727 555.792 132.201 526.646C134.032 523.197 135.421 520.37 137.402 517.27C136.605 517.153 135.813 517.008 135.027 516.838C122.533 514.229 122.137 507.1 124.471 496.471C121.057 499.553 115.52 504.179 111.013 504.065C104.167 503.896 93.1802 499.616 88.2304 495.01C83.4455 490.271 81.8513 481.357 82.0293 474.915C82.3255 464.197 76.3349 465.236 72.6904 456.978C73.3763 450.153 76.159 443.228 78.7163 436.942C79.959 434.059 80.9041 431.053 82.7196 428.453C85.5988 424.335 87.0053 424.846 90.4213 427.694C87.8989 435.074 80.5854 448.358 80.7783 456.85C80.8329 459.25 87.4717 462.405 88.5395 465.757C90.8178 472.91 88.5841 480.667 92.0357 487.509C95.1032 493.681 104.765 496.063 111.078 498.104C118.343 494.234 126.884 486.18 132.61 480.028C134.625 477.864 135.219 476.628 138.243 478.016C143.031 484.191 120.604 504.701 135.701 510.29C140.876 512.206 140.05 510.842 144.38 509.744C152.678 507.642 167.11 507.846 174.6 511.636L182.328 507.1C173.573 496.595 166.149 502.864 161.619 500.807C160.785 500.427 160.656 499.913 160.375 499.132C160.416 498.404 160.83 496.975 161.466 496.778C169.648 494.23 182.308 496.205 186.735 504.438C188.172 507.221 192.176 514.425 196.1 514.153C211.693 513.062 225.978 508.17 241.703 513.303C254.86 517.598 268.694 523.991 282.446 526.908C287.69 528.023 294.244 530.488 299.573 528.897C305.312 525.783 312.999 520.36 318.488 516.39C324.973 511.398 309.331 501.863 315.658 496.143L315.961 495.87C308.584 488.824 302.873 480.225 299.244 470.697C298.286 468.135 295.085 460.237 299.529 459.678C301.56 459.422 301.705 460.845 302.264 462.477C306.584 475.081 313.824 486.494 324.006 495.176C328.208 498.76 338.139 504.787 343.773 504.314C347.584 503.993 352.714 499.93 355.808 497.579C360.813 493.764 366.662 489.532 370.288 484.316C373.247 480.059 373.386 475.855 374.44 470.97C377.523 456.688 378.533 450.157 387.845 438.892C383.97 440.739 377.534 441.706 373.334 440.864C364.875 439.055 360.018 430.707 355.262 424.324C351.107 418.746 349.499 413.712 348.752 406.905C345.075 413.761 345.067 420.216 342.286 427.207C342.073 427.742 341.168 428.063 340.619 428.149C339.939 428.253 339.246 428.073 338.703 427.652C335.257 424.959 343.789 401.033 346.924 398.702C356.471 391.612 357.733 400.867 356.254 408.206C355.867 412.383 356.696 415.514 359.192 418.67C364.941 425.94 367.589 435.312 378.218 435.613C382.695 423.789 384.527 420.164 394.116 412.249C390.69 411.879 386.594 411.952 383.096 411.748C379.214 411.524 375.453 411.168 371.585 410.802C376.476 412.735 377.406 413.039 380.831 417.082C376.548 423.793 373.472 420.496 367.015 418.086C363.364 416.726 359.928 414.337 357.768 411.047C359.029 407.54 359.427 406.446 363.43 406.121L363.703 406.104C363.762 403.297 362.282 397.339 361.874 394.387C361.252 389.875 360.716 385.353 360.136 380.838C355.448 375.646 339.523 348.391 358.546 354.408C358.504 352.164 358.58 349.316 358.072 347.148C358.02 346.927 355.189 345.688 354.429 344.537C354.149 343.184 354.294 342.382 354.401 341.257C355.234 332.639 356.872 333.615 364.097 332.359C369.3 331.455 366.655 328.049 372.594 326.02Z" fill="#2C3F24"/>
<path d="M363.665 346.558C381.108 347.466 393.888 347.904 411.6 347.576L411.86 347.997C410.47 351.619 411.545 352.43 412.928 356.51C408.704 354.957 403.335 353.686 398.855 353.994C397.016 354.118 397.279 354.277 396.1 355.64C390.168 355.364 384.198 355.371 378.253 355.154C375.055 355.036 368.11 352.789 368.359 357.826C369.88 360.853 373.24 359.548 375.643 360.221C377.306 360.691 395.616 360.442 395.606 360.428C397.839 363.097 399.996 365.382 402.827 367.388L403.2 367.612C402.675 368.044 396.726 368.268 395.568 368.372L393.276 371.62C395.322 375.898 396.674 376.298 400.905 378.172C398.872 378.549 394.89 379.277 394.662 381.59C394.206 386.216 402.803 389.185 405.637 391.191L405.976 391.432C405.35 393.476 404.818 396.227 404.338 398.361C397.517 398.623 390.186 399.003 383.403 398.578C378.481 398.274 373.5 397.301 368.525 396.887C368.453 394.764 368.11 391.957 367.696 389.879C364.858 375.725 365.857 360.68 363.665 346.558Z" fill="#FEFEFE"/>
<path d="M375.691 365.455C380.13 366.163 380.386 369.017 377.544 371.948C372.853 372.352 373.144 367.947 375.691 365.455Z" fill="#2C3F24"/>
<path d="M402.398 358.64C405.423 358.72 419.506 362.089 422.499 363.114C422.098 369.349 421.175 371.096 419.457 377.03C417.57 383.561 416.45 390.652 412.744 396.586C412.257 397.37 410.494 398.692 409.737 399.282C410.642 396.659 412.633 394.501 412.91 392.043C411.98 387.369 402.892 385.336 400.597 382.584C405.713 382.325 412.26 385.595 415.606 383.782C418.558 379.481 403.473 375.117 400.362 373.101L400.269 372.552C402.719 370.692 413.038 372.984 416.042 373.771C417.853 374.247 419.194 372.173 419.34 370.578C417.317 365.482 403.145 365.855 402.398 358.64Z" fill="#FEFEFE"/>
<path d="M369.179 401.733C376.542 403.042 382.709 403.995 390.279 404.005C393.819 404.008 399.916 402.842 403.041 403.404C403.484 404.447 403.266 404.285 402.858 405.696C401.918 406.014 400.957 406.27 399.982 406.47C394.863 407.471 374.35 407.606 370.288 404.909C369.417 403.815 369.428 403.114 369.179 401.733Z" fill="#FEFEFE"/>
<path d="M219.018 516.914C224.712 515.965 232.471 517.018 237.761 519.327C234.013 520.021 230.131 520.177 226.333 520.336C224.312 520.449 222.29 520.518 220.266 520.546C218.095 520.563 210.539 520.781 209.157 519.428C210.554 517.936 216.779 517.184 219.018 516.914Z" fill="#FEFEFE"/>
<path d="M417.082 349.212C419.74 349.855 423.605 352.309 424.808 354.884C425.485 356.331 425.174 357.021 424.728 358.437C421.448 359.193 417.376 352.385 417.082 349.212Z" fill="#FEFEFE"/>
<path d="M355.648 358.153C356.703 358.229 356.841 358.191 357.754 358.664C359.506 360.684 359.427 364.15 359.275 366.739C357.059 364.985 356.067 360.825 355.648 358.153Z" fill="#FEFEFE"/>
<path d="M387.244 428.356C388.312 429.24 389.826 433.024 388.446 434.418H387.651C386.376 434.501 386.359 434.722 385.488 434.184C385.277 432.582 386.59 430.048 387.244 428.356Z" fill="#FEFEFE"/>
<path d="M197.648 520.605C194.464 520.543 190.56 520.246 187.936 518.136L188.112 517.708L187.869 517.891C188.152 517.739 188.941 517.353 189.22 517.57C192.098 519.811 194.632 519.849 198.307 519.859L197.648 520.605Z" fill="#2C3F24"/>
<path d="M198.307 519.859C200.399 519.728 201.773 519.376 203.7 520.014C202.917 521.216 199.012 520.739 197.648 520.605L198.307 519.859Z" fill="#FEFEFE"/>
<path d="M285.555 198.475C291.738 198.275 290.359 200.963 289.285 205.246C286.199 217.557 286.23 228.54 293.454 239.244C293.507 232.061 294.95 224.771 299.467 218.855C300.376 217.665 301.189 217.037 302.672 216.915C307.44 218.209 306.863 229.078 311.105 230.033C313.713 229.389 314.766 225.052 318.169 224.996C324.958 227.389 315.212 238.606 308.554 235.032C303.849 232.506 304.248 232.959 301.805 228.043C301.08 229.977 300.319 233.84 299.721 236.094C317.776 236.776 318.182 250.854 318.738 265.546C318.083 266.846 316.77 268.933 315.386 269.524C313.443 270.354 312.597 268.099 311.183 267.446C311.108 268.576 311.167 269.257 310.608 270.239C309.084 271.467 306.759 272.286 304.133 273.438C291.933 278.787 274.455 296.778 262.083 298.82C256.054 299.815 253.457 282.763 252.379 278.953C251.673 276.459 246.198 272.657 250.305 270.047C257.646 268.218 261.575 287.857 262.836 292.908C264.514 292.256 265.947 291.451 267.454 290.474C278.963 283.015 289.236 273.829 301.661 267.8C306.053 265.669 305.839 265.085 310.767 266.54C311.429 264.293 310.995 262.522 310.871 260.253C310.525 253.912 309.405 248.822 306.114 243.308C305.151 242.845 303.948 242.383 302.944 241.965C297.192 242.919 279.372 251.513 273.126 254.395C268.639 256.466 251.722 264.912 248.994 268.434C245.542 274.61 244.015 289.475 244.368 296.24C245.358 315.257 230.758 322.779 219.281 335.042C217.142 337.327 214.903 339.638 213.047 342.244C212.511 342.997 210.931 344.05 209.903 343.995C205.02 343.348 207.097 339.086 206.801 336.42C205.246 322.144 202.506 307.951 198.328 294.208C197.088 290.128 189.304 278.513 184.65 278.582C184.153 282.16 195.564 289.502 195.896 293.307C196.189 296.659 195.985 308.556 190.999 308.03C189.713 307.478 188.863 306.132 187.985 305.004C188.328 302.664 189.57 298.474 189.422 296.374C188.958 289.812 178.521 286.145 177.872 279.67C177.823 279.181 177.792 279.085 177.426 278.729C175.557 281.354 172.959 282.136 170.279 283.708C162.829 288.077 156.195 293.907 149.534 299.31C139.193 307.698 135.229 319.013 131.853 331.322C129.427 338.671 127.838 346.126 125.83 353.648C124.416 358.668 124.073 364.671 120.921 368.966C119.243 371.251 116.728 368.382 115.596 367.215C116.421 361.609 118.154 356.669 119.244 351.108C122.333 334.964 126.494 315.881 136.339 302.456C141.017 296.077 167.777 274.639 174.928 275.343C176.59 276.185 176.01 277.021 177.113 277.768L177.39 277.417C174.925 266.348 207.372 253.402 214.932 249.395C195.345 247.547 180.638 235.599 175.114 216.825C174.206 213.738 171.208 207.456 176.332 206.515C180.085 207.009 181.405 213.722 182.418 216.612C184.163 221.592 187.386 227.153 190.746 231.153C196.627 238.151 214.377 247.01 223.26 242.97C233.213 238.073 241.551 229.427 249.506 221.858C253.129 218.409 257.415 221.747 252.273 227.383C245.505 234.801 239.605 239.843 231.367 245.501C238.553 263.714 220.717 268.09 218.478 280.11C215.888 294.012 218.252 314.266 216.751 328.391C229.5 316.165 237.849 310.79 236.997 292.543C236.844 289.253 240.441 268.332 241.642 266.811C246.715 260.386 268.084 248.677 275.625 246.404C274.618 245.281 273.791 243.997 273.084 242.667C269.442 235.817 261.917 211.354 264.278 204.62C264.568 203.791 265.118 203.013 265.971 202.699C267.436 202.162 268.865 202.947 270.167 203.552C271.092 208.118 271.403 213.376 272.26 218.092C274.01 227.715 277.205 235.201 281.159 243.961C283.737 242.77 285.558 242.059 288.23 241.109C277.4 232.252 278.34 209.278 285.555 198.475Z" fill="#2C3F24"/>
<path d="M224.279 248.617C225.549 248.466 225.178 248.315 225.974 248.926C226.621 250.536 226.254 251.516 226.335 252.974C227.137 261.769 215.34 267.455 213.238 273.795C209.486 285.117 210.525 302.169 209.994 314.05C208.732 307.07 207.293 301.71 205.368 294.937C202.993 286.099 195.908 275.332 186.39 273.378C196.659 263.819 207.856 261.324 219.097 253.859C220.612 252.853 220.163 251.581 220.18 250.11C221.044 249.146 222.898 248.933 224.279 248.617Z" fill="#FEFEFE"/>
<path d="M78.9964 335.364C86.7728 335.11 88.0615 338.016 92.7337 343.655C94.3694 341.484 95.0148 341.189 97.4777 340.099C102.156 338.029 106.448 340.056 108.287 344.741C110.354 350.006 108.705 355.375 106.602 360.308C110.835 365.251 114.51 371.134 118.775 376.188C121.958 375.456 133.409 372.601 133.477 378.5C133.512 381.545 129.463 385.046 127.364 387.103C145.817 388.522 121.167 403.791 116.046 406.073C118.542 412.155 118.208 414.586 114.572 420.202C112.872 421.017 108.417 423.282 107.828 420.216C108.308 418.545 109.313 417.82 110.339 416.412C114.265 411.013 108.235 408.286 107.719 405.275C108.449 403.812 111.791 402.082 113.382 401.312C118.761 398.706 122.637 395.803 127.222 391.971C123.81 392.647 120.442 393.531 117.14 394.622C112.517 396.144 107.421 398.702 102.675 399.217C101.552 399.338 94.9042 397.073 94.2346 395.654C94.3424 395.074 94.5412 394.301 95.1866 394.09C109.114 389.509 117.333 388.836 128.749 379.036C125.284 379.681 121.847 380.468 118.445 381.393C112.059 383.178 90.4954 390.766 85.211 388.111C84.4978 387.752 83.9472 387.217 83.7011 386.454C82.3712 382.332 99.6721 372.525 101.909 368.362L101.676 367.92C98.1705 367.788 87.685 373.65 84.5646 375.763C82.3391 377.271 79.3797 380.838 76.913 379.909C75.0684 377.689 75.8317 376.543 77.3457 374.703C74.6114 371.134 68.4891 365.721 66.6798 362.262C66.9944 360.922 67.5775 359.386 68.0373 358.06C69.019 356.227 70.0277 354.173 68.8725 352.219L68.1811 352.095C65.9135 353.182 62.429 358.72 61.4196 361.074C64.277 368.168 70.744 372.097 74.6228 378.632C76.2053 381.259 75.9841 385.132 77.195 387.825C80.2591 394.629 83.3671 401.471 86.4917 408.248C88.5022 412.608 92.6037 415.877 95.5143 419.564C97.718 422.353 99.4637 425.992 101.255 429.071C103.179 432.143 103.67 438.896 104.767 440.591C111.07 444.105 120.195 434.812 123.089 430.034C127.502 422.75 124.55 420.271 120.815 414.358C121.606 409.069 124.002 411.158 127.256 412.773C132.851 415.549 135.428 438.896 131.864 442.244C130.313 442.987 128.095 442.672 127.181 441.212C125.99 439.303 127.222 435.199 127.637 433.107C124.478 437.777 118.513 443.863 112.928 445.973C105.306 448.852 92.9352 443.939 89.7864 436.196C88.6916 433.504 92.0955 432.088 93.3462 430.038C93.3638 427.124 90.9299 426.782 89.5724 424.814C84.3623 417.268 79.3859 410.671 76.0273 402.023C72.966 394.139 69.28 389.841 69.5718 381C66.4406 378.242 55.9378 366.425 54.9565 362.331C54.3851 359.945 56.2455 357.391 57.5017 355.399C54.3263 352.475 46.6788 345.003 46.6145 340.762C46.6014 339.644 47.0453 338.57 47.8434 337.788C50.6275 335.038 58.4181 335.645 62.2043 335.61C67.8022 335.579 73.3998 335.497 78.9964 335.364Z" fill="#2C3F24"/>
<path d="M53.6608 341.237C61.9122 341.134 71.2735 341.433 79.5125 341.218C84.4391 341.09 96.7397 358.537 99.8349 362.717C96.103 363.929 92.0043 365.907 88.3777 367.536C86.8557 368.175 83.0899 370.561 81.3439 371.51C78.8387 368.817 74.6633 363.805 72.397 361.599C75.7003 354.936 77.4553 350.611 70.6893 345.767C64.538 345.363 64.9041 345.336 61.7404 350.793C59.8488 349.506 53.0659 343.467 53.6608 341.237Z" fill="#FEFEFE"/>
<path d="M106.519 371.41C107.011 371.713 111.617 377.665 112.249 378.531C107.586 379.467 102.903 380.499 98.2486 381.493L92.9355 382.909C96.8085 379.07 103.376 374.952 106.519 371.41Z" fill="#FEFEFE"/>
<path d="M99.7787 344.787C103.569 345.415 103.014 352.52 101.425 353.78L100.516 353.251C98.9508 351.701 96.4561 349.067 96.9894 346.786C97.6798 345.684 98.6231 345.36 99.7787 344.787Z" fill="#FEFEFE"/>
<path d="M228.69 75.756C239.709 75.3915 251.133 76.7696 261.57 80.4403C275.344 85.177 286.626 95.2555 292.869 108.4C301.123 125.715 303.439 149.776 296.975 167.929C295.84 168.644 294.436 169.216 293.199 169.774C291.858 169.16 289.374 167.989 289.94 166.006C296.313 143.673 292.777 114.029 275.984 96.8977C270.065 91.4081 262.907 87.1222 255.205 84.9564C236.996 79.8361 217.592 81.3285 200.218 88.665C189.961 92.9957 180.874 97.5156 173.553 106.331C171.543 108.751 168.231 113.768 165.632 115.125C156.576 115.459 166.838 103.659 169.077 101.216C183.169 85.838 208.182 76.8828 228.69 75.756Z" fill="#2C3F24"/>
<path d="M178.427 130.106C179.728 130.338 180.923 131.08 182.117 131.702L182.103 132.546C182.046 136.465 182.038 142.271 182.835 146.143C184.53 154.384 189.715 163.195 195.566 169.232C201.032 174.873 209.001 179.634 216.83 180.891C220.272 181.409 222.56 180.84 226.079 180.874C229.516 180.907 236.294 178.644 239.075 181.005C239.71 181.545 239.599 181.916 239.567 182.629C239.141 183.204 238.528 183.815 237.833 184.031C210.558 192.503 189.178 178.266 178.368 154.058C176.697 148.586 176.423 142.879 176.161 137.209C169.032 147.606 170.745 162.8 174.372 174.271L174.772 174.272C177.382 174.297 184.926 174.759 184.337 178.722C182.282 180.955 178.269 179.426 175.717 178.792C176.721 180.508 177.703 182.389 178.66 184.144C181.041 185.215 183.371 185.837 183.177 188.898C182.954 189.401 182.709 189.958 182.17 190.225C175.287 193.652 172.167 185.05 169.359 180.1C166.737 180.774 164.574 181.604 162.226 179.52C161.023 175.988 166.051 175.423 168.436 174.927C163.224 164.053 162.36 148.883 168.271 138.037C170.894 133.225 173.798 132.469 178.427 130.106Z" fill="#2C3F24"/>
<path d="M160.237 117.654C165.509 117.64 165.449 120.462 162.412 123.939C152.075 135.772 144.922 148.242 145.325 164.395C145.694 179.133 153.416 191.061 167.752 195.598C170.733 196.548 175.675 197.055 177.814 199.068C178.572 201.178 177.291 201.826 175.391 202.635C166.198 203.612 156.387 198.596 149.714 192.573C130.049 174.82 136.342 144.189 151.885 126.043C154.705 122.75 156.316 120.052 160.237 117.654Z" fill="#2C3F24"/>
<path d="M202.402 128.77C205.577 128.567 206.313 130.072 207.07 133.151C210.2 145.895 217.341 161.11 231.791 163.471C242.963 165.296 257.591 168.772 255.726 183.375C255.409 185.778 253.589 191.523 250.297 190.509C247.947 188.1 249.599 182.393 248.841 177.613C244.763 170.042 233.262 170.185 224.992 167.654C221.22 168.87 217.764 168.264 214.041 169.242C211.453 169.921 208.347 173.257 205.449 172.737C201.478 169.948 205.145 167.666 207.77 166.506C211.944 164.662 213.521 164.113 217.939 163.755C211.32 159.259 205.394 148.367 203.059 140.87C201.914 137.192 198.438 131.295 202.402 128.77Z" fill="#2C3F24"/>
<path d="M317.433 269.609C322.98 268.829 339.268 278.97 344.058 282.271C360.121 293.343 367.325 303.486 371.017 322.272C370.367 323.939 370.219 324.452 369.137 325.896L368.66 325.983C367.764 326.14 365.763 326.55 365.317 325.821C363.067 322.119 361.839 315.476 360.063 311.255C358.69 307.984 356.972 304.868 354.94 301.958C345.206 288.239 330.588 282.137 316.541 274.204C314.827 273.236 316.546 270.632 317.433 269.609Z" fill="#2C3F24"/>
<path d="M338.812 307.193C340.495 307.943 341.179 308.051 341.652 309.902C341.261 311.399 340.164 312.282 338.927 313.104C333.452 316.741 328.976 321.596 325.279 327.045C322.176 331.694 319.556 336.647 317.461 341.827C313.123 352.634 310.33 364.336 306.301 375.269C306.007 376.067 305.431 376.647 304.798 377.192C303.048 377.158 302.63 377.282 301.63 375.946C300.751 371.065 309.46 344.603 311.914 339.043C316.898 327.752 326.793 311.988 338.812 307.193Z" fill="#2C3F24"/>
<path d="M305.144 183.394C318.562 182.303 330.626 188.939 332.696 203.172C333.575 209.214 327.4 227.119 319.85 220.694C319.635 217.523 322.33 214.628 323.648 211.859C325.404 208.172 325.416 203.639 324.061 199.829C318.414 183.959 301.016 191.6 298.026 189.835C297.435 189.486 296.822 188.566 296.669 187.911C296.509 187.231 296.587 186.701 297.011 186.121C298.384 184.241 302.977 183.82 305.144 183.394Z" fill="#2C3F24"/>
<path d="M264.674 161.982C286.116 159.972 283.703 184.892 274.387 196.715C272.622 198.954 267.786 202.075 265.199 199.699C264.014 196.948 265.891 195.596 267.725 193.951C272.775 188.541 275.29 178.568 273.191 171.411C270.165 162.263 261.11 170.388 256.741 171.57C249.891 173.423 251.98 166.055 257.699 164.421C259.213 163.989 262.352 162.516 264.674 161.982Z" fill="#2C3F24"/>
<path d="M293.794 544.708C294.858 544.759 295.767 544.832 296.366 545.823C299.721 551.367 301.703 558.199 303.578 564.312C307.946 578.549 310.667 593.873 309.374 608.766C309.249 610.195 308.423 610.53 307.403 611.279C306.091 611.213 305.528 610.968 304.295 610.571C303.48 608.983 303.489 594.643 303.283 591.439C303.064 588.215 302.704 585.004 302.207 581.811C300.13 567.978 296.256 560.121 292.011 547.573C292.565 546.389 293.051 545.754 293.794 544.708Z" fill="#2C3F24"/>
<path d="M141.666 410.012C142.63 410.081 145.376 410.654 145.5 411.807C147.294 428.533 149.707 453.785 142.028 469.244C140.583 469.489 140.35 469.551 138.941 469.195C138.385 468.712 137.846 468.384 137.938 467.504C138.737 460.071 141.27 452.756 141.389 445.199C141.537 435.558 141.555 425.992 140.585 416.381C140.282 413.374 139.755 412.328 141.666 410.012Z" fill="#2C3F24"/>
<path d="M146.88 325.907C148.263 325.904 148.618 325.86 149.932 326.382C150.511 327.04 150.796 327.277 150.757 328.253C150.273 340.407 152.159 352.482 147.792 364.167C146.056 368.81 145.535 372.749 142.198 376.861C136.657 374.396 139.049 372.987 140.676 367.878C144.892 354.639 145.05 341.695 144.593 327.97C144.965 326.971 145.931 326.532 146.88 325.907Z" fill="#2C3F24"/>
<path d="M296.697 385.536C298.412 385.778 299.121 386.734 300.287 387.942C296.512 402.938 298.481 417.838 298.842 433.034C298.885 434.829 298.323 435.257 297.076 436.417C296.023 436.244 295.026 436.113 294.331 435.226C291.748 431.936 292.331 404.923 292.83 400.021C293.261 395.782 293.189 388.391 296.697 385.536Z" fill="#2C3F24"/>
<path d="M334.088 419.723C335.272 420.272 335.673 420.413 336.642 421.324C337.076 422.888 333.712 426.693 332.589 428.236C327.595 434.853 323.7 440.757 322.455 449.169C321.931 452.704 322.671 457.565 319.869 459.443C318.833 459.219 317.966 459.088 317.259 458.242C315.965 456.695 316.365 450.633 316.615 448.714C318.091 437.387 325.219 426.675 334.088 419.723Z" fill="#2C3F24"/>
<path d="M192.373 186.514C198.235 185.599 199.768 192.817 200.218 197.314C200.642 201.548 199.09 204.549 196.331 207.67C198.046 208.915 200.215 210.127 200.752 212.133C200.74 213.368 200.312 213.698 199.541 214.693C196.78 215.693 193.245 213.096 191.66 210.99C190.893 209.97 190.628 208.573 190.35 207.342C190.898 205.111 193.031 201.326 194.081 198.863C193.319 194.679 190.641 189.842 192.373 186.514Z" fill="#2C3F24"/>
<path d="M288.271 173.215C288.951 173.256 289.739 173.35 290.426 173.417C291.524 174.266 292.296 174.922 293.718 174.818C299.085 174.424 297.371 179.115 295.903 182.231C294.608 184.977 293.447 189.193 291.521 191.601C288.898 192.434 283.781 189.382 281.502 187.879C284.074 182.732 284.836 177.597 288.271 173.215Z" fill="#2C3F24"/>
<path d="M323.011 470.162C324.059 470.662 329.234 479.607 331.324 481.958C334.767 485.838 336.985 487.236 340.433 490.606C339.496 492.259 339.211 492.639 337.946 494.058C337.316 493.764 336.704 493.436 336.112 493.07C329.589 489.031 321.62 479.786 319.806 472.199C320.795 471.436 321.932 470.804 323.011 470.162Z" fill="#2C3F24"/>
<path d="M95.2363 447.288C97.5326 447.609 100.792 454.027 103.098 455.76C104.423 456.757 105.344 457.165 106.821 457.883C109.126 456.864 113.319 454.907 115.453 457.168C115.099 459.001 113.811 459.564 112.334 460.486C105.421 464.597 99.0422 460.893 94.789 454.983C92.6689 452.038 91.9205 449.366 95.2363 447.288Z" fill="#2C3F24"/>
<path d="M210.707 494.109C213.344 493.857 215.694 493.619 214.913 497.306C214.006 498.407 211.639 498.673 209.957 499.049C204.477 500.275 199.68 502.436 194.524 504.625C192.267 504.998 191.084 505.319 190.136 502.885C190.932 498.173 206.203 494.876 210.707 494.109Z" fill="#2C3F24"/>
<path d="M160.443 528.928C168.49 527.906 168.653 533.46 162.568 537.565C158.824 538.335 155.434 536.712 156.495 532.352C156.968 530.409 158.774 529.767 160.443 528.928Z" fill="#2C3F24"/>
<path d="M369.977 445.393C376.921 444.795 375.646 451.993 369.79 454.499C366.444 454.81 363.945 453.84 365.275 449.763C366.115 447.191 367.636 446.432 369.977 445.393Z" fill="#2C3F24"/>
<path d="M124.041 447.295C125.418 447.423 126.023 447.395 127.258 448.089C129.381 451.172 123.41 455.963 121.171 457.548L120.273 458.083C119.011 457.734 118.334 456.412 117.464 455.235C119.719 452.149 121.413 450.032 124.041 447.295Z" fill="#2C3F24"/>
<path d="M219.62 227.493C220.786 227.426 222.133 228.198 222.759 229.175C223.282 232.899 220.382 233.453 217.521 233.662C215.817 233.548 214.434 233.236 213.665 231.632C213.938 228.876 217.458 228.124 219.62 227.493Z" fill="#2C3F24"/>
<path d="M182.406 196.961C184.199 196.378 186.125 197.363 186.699 199.156C187.274 200.95 186.278 202.868 184.479 203.432C182.693 203.993 180.79 203.007 180.219 201.226C179.649 199.446 180.626 197.54 182.406 196.961Z" fill="#2C3F24"/>
<path d="M218.661 190.17C223.889 190.212 224.299 193.785 221.293 197.288L220.971 197.311C216.862 197.572 215.497 192.965 218.661 190.17Z" fill="#2C3F24"/>
<path d="M121.497 479.103C122.525 479.269 122.605 479.3 123.555 479.742C124.686 482.314 117.461 486.694 115.349 487.433L113.353 487.689L113.164 487.423C117.439 484.43 118.102 481.602 121.497 479.103Z" fill="#2C3F24"/>
</g>
<defs>
<clipPath id="clip0_777_866">
<rect width="476" height="605" fill="white"/>
</clipPath>
</defs>
</svg>
